<mxfile host="app.diagrams.net" modified="2023-05-21T10:49:34.604Z" agent="Mozilla/5.0 (Windows NT 10.0; Win64; x64) AppleWebKit/537.36 (KHTML, like Gecko) Chrome/113.0.0.0 Safari/537.36" version="21.2.9" etag="XjZDeEY2UWMysULAXu1_" type="github">
  <diagram name="Страница 1" id="44cLOY6wrB7amIj0rBxH">
    <mxGraphModel>
      <root>
        <mxCell id="0" />
        <mxCell id="1" parent="0" />
      </root>
    </mxGraphModel>
  </diagram>
</mxfile>
